<mxfile host="app.diagrams.net" modified="2023-04-18T12:22:27.352Z" agent="Mozilla/5.0 (X11; Linux x86_64) AppleWebKit/537.36 (KHTML, like Gecko) Chrome/112.0.0.0 Safari/537.36" etag="z8am3iZDQTQlOyDNZjil" version="21.1.7" type="github" pages="3">
  <diagram name="requisitos e funcionalidades" id="45IemXz6j9i4KKmDaBbg">
    <mxGraphModel dx="838" dy="495" grid="1" gridSize="10" guides="1" tooltips="1" connect="1" arrows="1" fold="1" page="1" pageScale="1" pageWidth="827" pageHeight="1169" math="0" shadow="0">
      <root>
        <mxCell id="0" />
        <mxCell id="1" parent="0" />
        <mxCell id="JATrlw67HcKR4ToxlkPX-1" value="&lt;h1&gt;Requisitos&lt;/h1&gt;&lt;p&gt;&lt;/p&gt;&lt;ol&gt;&lt;li&gt;&amp;nbsp;Linguagem de programação:&lt;/li&gt;&lt;ul&gt;&lt;li&gt;&lt;span style=&quot;background-color: initial;&quot;&gt;Python 3.10.&lt;/span&gt;&lt;/li&gt;&lt;/ul&gt;&lt;li&gt;Bibliotecas:&lt;/li&gt;&lt;ul&gt;&lt;li&gt;&lt;span style=&quot;background-color: initial;&quot;&gt;Tkinter;&lt;/span&gt;&lt;/li&gt;&lt;li&gt;&lt;span style=&quot;background-color: initial;&quot;&gt;Timer;&lt;/span&gt;&lt;/li&gt;&lt;li&gt;&lt;span style=&quot;background-color: initial;&quot;&gt;Adafruit_CircuitPython_Fingerprint.&lt;br&gt;&lt;/span&gt;&lt;/li&gt;&lt;/ul&gt;&lt;li&gt;Hardware&lt;/li&gt;&lt;ul&gt;&lt;li&gt;PC para gestão do painel;&lt;/li&gt;&lt;li&gt;PC totem para acesso à Ordem do Dia;&lt;/li&gt;&lt;li&gt;Access Point para acesso individual por App;&lt;/li&gt;&lt;li&gt;Dispositivo de leitura biométrica (aproveitamento ou aquisição de módulo Arduino).&lt;/li&gt;&lt;/ul&gt;&lt;/ol&gt;&lt;p&gt;&lt;/p&gt;" style="text;html=1;strokeColor=none;fillColor=none;spacing=5;spacingTop=-20;whiteSpace=wrap;overflow=hidden;rounded=0;" parent="1" vertex="1">
          <mxGeometry x="90" y="70" width="340" height="350" as="geometry" />
        </mxCell>
        <mxCell id="JATrlw67HcKR4ToxlkPX-4" value="&lt;h1&gt;Funcionalidades&lt;/h1&gt;&lt;p&gt;&lt;/p&gt;&lt;ol&gt;&lt;li&gt;Cadastro de usuários;&lt;/li&gt;&lt;li&gt;Níveis de acesso de usuários;&lt;/li&gt;&lt;li&gt;Cronômetro;&lt;/li&gt;&lt;li&gt;Registro de presença dos Edís:&lt;/li&gt;&lt;ul&gt;&lt;li&gt;Pelo próprio Edil;&lt;/li&gt;&lt;li&gt;Por funcionário habilitado por login.&lt;/li&gt;&lt;/ul&gt;&lt;li&gt;Tela de gestão;&lt;/li&gt;&lt;li&gt;Tela do painel;&lt;/li&gt;&lt;li&gt;Registro de votação;&lt;/li&gt;&lt;ul&gt;&lt;li&gt;&lt;span style=&quot;background-color: initial;&quot;&gt;Pelo próprio Edil;&lt;/span&gt;&lt;/li&gt;&lt;li&gt;&lt;span style=&quot;background-color: initial;&quot;&gt;Por funcionário habilitado por login.&lt;/span&gt;&lt;/li&gt;&lt;/ul&gt;&lt;li&gt;Cálculo do Quórum através do número de vereadores cadastrados com status ativo;&lt;/li&gt;&lt;li&gt;Leitura biométrica (aproveitamento de equipamento ou adquirindo novo módulo de leitura);&lt;/li&gt;&lt;li&gt;Nomeação das sessões automaticamente;&lt;/li&gt;&lt;li style=&quot;border-color: var(--border-color);&quot;&gt;Nomeação das sessões manualmente;&lt;/li&gt;&lt;li style=&quot;border-color: var(--border-color);&quot;&gt;Sistema baseado em módulos;&lt;/li&gt;&lt;li style=&quot;border-color: var(--border-color);&quot;&gt;Registro das sessões em banco de dados;&lt;/li&gt;&lt;li style=&quot;border-color: var(--border-color);&quot;&gt;Relatórios:&lt;/li&gt;&lt;ul&gt;&lt;li style=&quot;border-color: var(--border-color);&quot;&gt;Presença;&lt;/li&gt;&lt;li style=&quot;border-color: var(--border-color);&quot;&gt;Votações;&lt;/li&gt;&lt;li style=&quot;border-color: var(--border-color);&quot;&gt;Gráficos.&lt;/li&gt;&lt;/ul&gt;&lt;/ol&gt;&lt;div&gt;&lt;br&gt;&lt;/div&gt;&lt;div&gt;&lt;br&gt;&lt;/div&gt;&lt;div&gt;&lt;br&gt;&lt;/div&gt;&lt;div&gt;&lt;br&gt;&lt;/div&gt;&lt;div&gt;&lt;br&gt;&lt;/div&gt;&lt;div&gt;&lt;br&gt;&lt;/div&gt;&lt;div&gt;OBS: adequação com o regimento interno da Casa.&lt;/div&gt;&lt;p&gt;&lt;/p&gt;" style="text;html=1;strokeColor=none;fillColor=none;spacing=5;spacingTop=-20;whiteSpace=wrap;overflow=hidden;rounded=0;" parent="1" vertex="1">
          <mxGeometry x="530" y="70" width="340" height="620" as="geometry" />
        </mxCell>
      </root>
    </mxGraphModel>
  </diagram>
  <diagram id="kO1BRVCHcmrDBPM0cbuH" name="Fluxograma">
    <mxGraphModel dx="838" dy="495" grid="1" gridSize="10" guides="1" tooltips="1" connect="1" arrows="1" fold="1" page="1" pageScale="1" pageWidth="827" pageHeight="1169" math="0" shadow="0">
      <root>
        <mxCell id="0" />
        <mxCell id="1" parent="0" />
      </root>
    </mxGraphModel>
  </diagram>
  <diagram id="B_FyXgWNFQOXzVU2opzj" name="telas">
    <mxGraphModel dx="838" dy="495" grid="1" gridSize="10" guides="1" tooltips="1" connect="1" arrows="1" fold="1" page="1" pageScale="1" pageWidth="827" pageHeight="1169" math="0" shadow="0">
      <root>
        <mxCell id="0" />
        <mxCell id="1" parent="0" />
        <mxCell id="LyQwK9p2G28g45eBazeQ-1" value="CMFSA" style="strokeWidth=1;shadow=0;dashed=0;align=center;html=1;shape=mxgraph.mockup.containers.window;align=left;verticalAlign=top;spacingLeft=8;strokeColor2=#008cff;strokeColor3=#c4c4c4;fontColor=#666666;mainText=;fontSize=17;labelBackgroundColor=none;whiteSpace=wrap;" parent="1" vertex="1">
          <mxGeometry x="180" y="60" width="550" height="380" as="geometry" />
        </mxCell>
        <mxCell id="LyQwK9p2G28g45eBazeQ-2" value="&lt;b&gt;&lt;font style=&quot;font-size: 15px;&quot;&gt;Tempo&lt;/font&gt;&lt;br&gt;&lt;font style=&quot;font-size: 24px;&quot;&gt;00:00&lt;/font&gt;&lt;/b&gt;" style="text;html=1;strokeColor=#36393d;fillColor=#eeeeee;align=center;verticalAlign=middle;whiteSpace=wrap;rounded=1;" parent="1" vertex="1">
          <mxGeometry x="610" y="350" width="90" height="50" as="geometry" />
        </mxCell>
      </root>
    </mxGraphModel>
  </diagram>
</mxfile>
